<svg width="530" height="154" viewBox="0 0 530 154" fill="none" xmlns="http://www.w3.org/2000/svg">
<path d="M28.2014 108C26.7934 108 25.6094 107.52 24.6494 106.56C23.6894 105.6 23.2094 104.416 23.2094 103.008V38.016C23.2094 36.544 23.6894 35.36 24.6494 34.464C25.6094 33.504 26.7934 33.024 28.2014 33.024H47.4014C52.2014 33.024 56.4574 34.08 60.1694 36.192C63.8814 38.304 66.7614 41.248 68.8094 45.024C70.9214 48.736 71.9774 53.024 71.9774 57.888C71.9774 62.56 70.9214 66.72 68.8094 70.368C66.7614 74.016 63.8814 76.864 60.1694 78.912C56.4574 80.96 52.2014 81.984 47.4014 81.984H33.1934V103.008C33.1934 104.416 32.7134 105.6 31.7534 106.56C30.8574 107.52 29.6734 108 28.2014 108ZM33.1934 72.768H47.4014C50.3454 72.768 52.9374 72.128 55.1774 70.848C57.4174 69.568 59.1774 67.808 60.4574 65.568C61.7374 63.328 62.3774 60.768 62.3774 57.888C62.3774 54.816 61.7374 52.128 60.4574 49.824C59.1774 47.456 57.4174 45.6 55.1774 44.256C52.9374 42.912 50.3454 42.24 47.4014 42.24H33.1934V72.768ZM86.7659 75.168C86.7659 71.328 87.6939 67.904 89.5499 64.896C91.4699 61.824 94.0299 59.392 97.2299 57.6C100.43 55.808 103.95 54.912 107.79 54.912C111.63 54.912 114.478 55.552 116.334 56.832C118.254 58.048 118.99 59.52 118.542 61.248C118.35 62.144 117.966 62.848 117.39 63.36C116.878 63.808 116.27 64.096 115.566 64.224C114.862 64.352 114.094 64.32 113.262 64.128C109.166 63.296 105.486 63.232 102.222 63.936C98.9579 64.64 96.3659 65.952 94.4459 67.872C92.5899 69.792 91.6619 72.224 91.6619 75.168H86.7659ZM86.8619 108C85.3259 108 84.1419 107.616 83.3099 106.848C82.4779 106.016 82.0619 104.8 82.0619 103.2V60.288C82.0619 58.752 82.4779 57.568 83.3099 56.736C84.1419 55.904 85.3259 55.488 86.8619 55.488C88.4619 55.488 89.6459 55.904 90.4139 56.736C91.2459 57.504 91.6619 58.688 91.6619 60.288V103.2C91.6619 104.736 91.2459 105.92 90.4139 106.752C89.6459 107.584 88.4619 108 86.8619 108ZM148.714 108.384C143.53 108.384 138.954 107.264 134.986 105.024C131.018 102.72 127.882 99.584 125.578 95.616C123.338 91.584 122.218 86.976 122.218 81.792C122.218 76.544 123.338 71.936 125.578 67.968C127.882 63.936 131.018 60.8 134.986 58.56C138.954 56.256 143.53 55.104 148.714 55.104C153.834 55.104 158.378 56.256 162.346 58.56C166.314 60.8 169.418 63.936 171.658 67.968C173.962 71.936 175.114 76.544 175.114 81.792C175.114 86.976 173.994 91.584 171.754 95.616C169.514 99.584 166.41 102.72 162.442 105.024C158.474 107.264 153.898 108.384 148.714 108.384ZM148.714 99.744C152.042 99.744 154.986 98.976 157.546 97.44C160.106 95.904 162.09 93.792 163.498 91.104C164.97 88.416 165.706 85.312 165.706 81.792C165.706 78.272 164.97 75.168 163.498 72.48C162.09 69.728 160.106 67.584 157.546 66.048C154.986 64.512 152.042 63.744 148.714 63.744C145.386 63.744 142.442 64.512 139.882 66.048C137.322 67.584 135.306 69.728 133.834 72.48C132.362 75.168 131.626 78.272 131.626 81.792C131.626 85.312 132.362 88.416 133.834 91.104C135.306 93.792 137.322 95.904 139.882 97.44C142.442 98.976 145.386 99.744 148.714 99.744ZM211.575 108.384C206.775 108.384 202.519 107.264 198.807 105.024C195.159 102.72 192.279 99.584 190.167 95.616C188.055 91.584 186.999 86.976 186.999 81.792C186.999 76.544 188.119 71.936 190.359 67.968C192.663 63.936 195.799 60.8 199.767 58.56C203.735 56.256 208.311 55.104 213.495 55.104C218.615 55.104 223.159 56.256 227.127 58.56C231.095 60.8 234.199 63.936 236.439 67.968C238.743 71.936 239.895 76.544 239.895 81.792H234.231C234.231 86.976 233.239 91.584 231.255 95.616C229.335 99.584 226.679 102.72 223.287 105.024C219.895 107.264 215.991 108.384 211.575 108.384ZM213.303 129.792C208.759 129.792 204.503 128.896 200.535 127.104C196.567 125.312 193.207 122.688 190.455 119.232C189.623 118.144 189.303 117.024 189.495 115.872C189.751 114.72 190.391 113.792 191.415 113.088C192.567 112.32 193.751 112.064 194.967 112.32C196.247 112.576 197.271 113.216 198.039 114.24C199.767 116.416 201.943 118.112 204.567 119.328C207.191 120.544 210.167 121.152 213.495 121.152C216.567 121.152 219.383 120.416 221.943 118.944C224.567 117.472 226.647 115.296 228.183 112.416C229.719 109.536 230.487 106.016 230.487 101.856V88.224L233.655 79.776L239.895 81.792V102.528C239.895 107.584 238.775 112.16 236.535 116.256C234.295 120.416 231.159 123.712 227.127 126.144C223.159 128.576 218.551 129.792 213.303 129.792ZM213.495 99.744C216.823 99.744 219.767 98.976 222.327 97.44C224.887 95.904 226.871 93.792 228.279 91.104C229.751 88.416 230.487 85.312 230.487 81.792C230.487 78.272 229.751 75.168 228.279 72.48C226.871 69.728 224.887 67.584 222.327 66.048C219.767 64.512 216.823 63.744 213.495 63.744C210.167 63.744 207.223 64.512 204.663 66.048C202.103 67.584 200.087 69.728 198.615 72.48C197.143 75.168 196.407 78.272 196.407 81.792C196.407 85.312 197.143 88.416 198.615 91.104C200.087 93.792 202.103 95.904 204.663 97.44C207.223 98.976 210.167 99.744 213.495 99.744ZM259.172 75.168C259.172 71.328 260.1 67.904 261.956 64.896C263.876 61.824 266.436 59.392 269.636 57.6C272.836 55.808 276.356 54.912 280.196 54.912C284.036 54.912 286.884 55.552 288.74 56.832C290.66 58.048 291.396 59.52 290.948 61.248C290.756 62.144 290.372 62.848 289.796 63.36C289.284 63.808 288.676 64.096 287.972 64.224C287.268 64.352 286.5 64.32 285.668 64.128C281.572 63.296 277.892 63.232 274.628 63.936C271.364 64.64 268.772 65.952 266.852 67.872C264.996 69.792 264.068 72.224 264.068 75.168H259.172ZM259.268 108C257.732 108 256.548 107.616 255.716 106.848C254.884 106.016 254.468 104.8 254.468 103.2V60.288C254.468 58.752 254.884 57.568 255.716 56.736C256.548 55.904 257.732 55.488 259.268 55.488C260.868 55.488 262.052 55.904 262.82 56.736C263.652 57.504 264.068 58.688 264.068 60.288V103.2C264.068 104.736 263.652 105.92 262.82 106.752C262.052 107.584 260.868 108 259.268 108ZM321.984 108.384C316.672 108.384 311.936 107.264 307.776 105.024C303.68 102.72 300.448 99.584 298.08 95.616C295.776 91.584 294.624 86.976 294.624 81.792C294.624 76.544 295.712 71.936 297.888 67.968C300.128 63.936 303.2 60.8 307.104 58.56C311.008 56.256 315.488 55.104 320.544 55.104C325.536 55.104 329.824 56.224 333.408 58.464C336.992 60.64 339.712 63.68 341.568 67.584C343.488 71.424 344.448 75.872 344.448 80.928C344.448 82.144 344.032 83.168 343.2 84C342.368 84.768 341.312 85.152 340.032 85.152H301.344V77.472H339.744L335.808 80.16C335.744 76.96 335.104 74.112 333.888 71.616C332.672 69.056 330.944 67.04 328.704 65.568C326.464 64.096 323.744 63.36 320.544 63.36C316.896 63.36 313.76 64.16 311.136 65.76C308.576 67.36 306.624 69.568 305.28 72.384C303.936 75.136 303.264 78.272 303.264 81.792C303.264 85.312 304.064 88.448 305.664 91.2C307.264 93.952 309.472 96.128 312.288 97.728C315.104 99.328 318.336 100.128 321.984 100.128C323.968 100.128 325.984 99.776 328.032 99.072C330.144 98.304 331.84 97.44 333.12 96.48C334.08 95.776 335.104 95.424 336.192 95.424C337.344 95.36 338.336 95.68 339.168 96.384C340.256 97.344 340.832 98.4 340.896 99.552C340.96 100.704 340.448 101.696 339.36 102.528C337.184 104.256 334.464 105.664 331.2 106.752C328 107.84 324.928 108.384 321.984 108.384ZM376.041 108.384C371.561 108.384 367.401 107.712 363.561 106.368C359.785 104.96 356.841 103.2 354.729 101.088C353.769 100.064 353.353 98.912 353.481 97.632C353.673 96.288 354.313 95.2 355.401 94.368C356.681 93.344 357.929 92.928 359.145 93.12C360.425 93.248 361.513 93.792 362.409 94.752C363.497 95.968 365.225 97.12 367.593 98.208C370.025 99.232 372.713 99.744 375.657 99.744C379.369 99.744 382.185 99.136 384.105 97.92C386.089 96.704 387.113 95.136 387.177 93.216C387.241 91.296 386.313 89.632 384.393 88.224C382.537 86.816 379.113 85.664 374.121 84.768C367.657 83.488 362.953 81.568 360.009 79.008C357.129 76.448 355.689 73.312 355.689 69.6C355.689 66.336 356.649 63.648 358.569 61.536C360.489 59.36 362.953 57.76 365.961 56.736C368.969 55.648 372.105 55.104 375.369 55.104C379.593 55.104 383.337 55.776 386.601 57.12C389.865 58.464 392.457 60.32 394.377 62.688C395.273 63.712 395.689 64.8 395.625 65.952C395.561 67.04 395.017 67.968 393.993 68.736C392.969 69.44 391.753 69.664 390.345 69.408C388.937 69.152 387.753 68.576 386.793 67.68C385.193 66.144 383.465 65.088 381.609 64.512C379.753 63.936 377.609 63.648 375.177 63.648C372.361 63.648 369.961 64.128 367.977 65.088C366.057 66.048 365.097 67.456 365.097 69.312C365.097 70.464 365.385 71.52 365.961 72.48C366.601 73.376 367.817 74.208 369.609 74.976C371.401 75.68 374.025 76.384 377.481 77.088C382.281 78.048 386.057 79.264 388.809 80.736C391.625 82.208 393.641 83.936 394.857 85.92C396.073 87.84 396.681 90.08 396.681 92.64C396.681 95.584 395.881 98.24 394.281 100.608C392.745 102.976 390.441 104.864 387.369 106.272C384.361 107.68 380.585 108.384 376.041 108.384ZM414.918 108C413.51 108 412.326 107.552 411.366 106.656C410.47 105.696 410.022 104.512 410.022 103.104V60.384C410.022 58.912 410.47 57.728 411.366 56.832C412.326 55.936 413.51 55.488 414.918 55.488C416.39 55.488 417.574 55.936 418.47 56.832C419.366 57.728 419.814 58.912 419.814 60.384V103.104C419.814 104.512 419.366 105.696 418.47 106.656C417.574 107.552 416.39 108 414.918 108ZM414.918 46.944C413.19 46.944 411.686 46.336 410.406 45.12C409.19 43.84 408.582 42.336 408.582 40.608C408.582 38.88 409.19 37.408 410.406 36.192C411.686 34.912 413.19 34.272 414.918 34.272C416.646 34.272 418.118 34.912 419.334 36.192C420.614 37.408 421.254 38.88 421.254 40.608C421.254 42.336 420.614 43.84 419.334 45.12C418.118 46.336 416.646 46.944 414.918 46.944ZM443.695 108C442.479 108 441.391 107.552 440.431 106.656C439.471 105.76 438.991 104.576 438.991 103.104V55.776C438.991 51.168 439.887 47.168 441.679 43.776C443.535 40.384 446.095 37.76 449.359 35.904C452.623 33.984 456.399 33.024 460.687 33.024C462.095 33.024 463.247 33.44 464.143 34.272C465.103 35.104 465.583 36.16 465.583 37.44C465.583 38.656 465.103 39.712 464.143 40.608C463.247 41.44 462.095 41.856 460.687 41.856C458.319 41.856 456.239 42.4 454.447 43.488C452.655 44.576 451.247 46.08 450.223 48C449.263 49.92 448.783 52.192 448.783 54.816V103.104C448.783 104.576 448.335 105.76 447.439 106.656C446.543 107.552 445.295 108 443.695 108ZM434.863 65.664C433.519 65.664 432.431 65.28 431.599 64.512C430.767 63.744 430.351 62.784 430.351 61.632C430.351 60.352 430.767 59.328 431.599 58.56C432.431 57.792 433.519 57.408 434.863 57.408H458.575C459.919 57.408 461.007 57.792 461.839 58.56C462.671 59.328 463.087 60.352 463.087 61.632C463.087 62.784 462.671 63.744 461.839 64.512C461.007 65.28 459.919 65.664 458.575 65.664H434.863ZM482.689 131.04C482.049 131.04 481.281 130.848 480.385 130.464C477.569 129.184 476.801 127.168 478.081 124.416L507.361 58.272C508.641 55.584 510.657 54.816 513.409 55.968C516.289 57.184 517.089 59.2 515.809 62.016L486.433 128.064C485.665 130.048 484.417 131.04 482.689 131.04ZM494.017 105.888C492.801 106.4 491.649 106.464 490.561 106.08C489.537 105.632 488.705 104.8 488.065 103.584L466.081 61.824C465.441 60.608 465.345 59.456 465.793 58.368C466.305 57.216 467.169 56.384 468.385 55.872C469.601 55.36 470.753 55.328 471.841 55.776C472.929 56.16 473.761 56.96 474.337 58.176L495.361 99.936C496.001 101.152 496.225 102.336 496.033 103.488C495.905 104.576 495.233 105.376 494.017 105.888Z" fill="#D2A01E"/>
</svg>
